<svg xmlns="http://www.w3.org/2000/svg" xmlns:xlink="http://www.w3.org/1999/xlink" width="500" zoomAndPan="magnify" viewBox="0 0 375 374.999991" height="500" preserveAspectRatio="xMidYMid meet" version="1.0"><defs><filter x="0%" y="0%" width="100%" height="100%" id="e8aa801078"><feColorMatrix values="0 0 0 0 1 0 0 0 0 1 0 0 0 0 1 0 0 0 1 0" color-interpolation-filters="sRGB"/></filter><mask id="471b068959"><g filter="url(#e8aa801078)"><rect x="-37.5" width="450" fill="#000000" y="-37.499999" height="449.999989" fill-opacity="0.97"/></g></mask><clipPath id="808d48a606"><path d="M 0.878906 97 L 71 97 L 71 122 L 0.878906 122 Z M 0.878906 97 " clip-rule="nonzero"/></clipPath><clipPath id="9a34311db4"><rect x="0" width="311" y="0" height="226"/></clipPath></defs><g mask="url(#471b068959)"><g transform="matrix(1, 0, 0, 1, 32, 75)"><g clip-path="url(#9a34311db4)"><path fill="#645f8c" d="M 201.316406 25.621094 C 198.609375 28.941406 195.71875 32.164062 193.230469 35.613281 C 189.964844 40.152344 187.257812 45.03125 183.824219 49.457031 C 181.40625 52.5625 178.355469 55.351562 175.222656 57.871094 C 172.042969 60.433594 168.265625 60.691406 164.683594 58.300781 C 161.480469 56.15625 158.015625 55.253906 154.007812 55.179688 C 151.328125 55.125 148.710938 53.9375 146.003906 53.476562 C 138.046875 52.132812 130.113281 51.6875 122.113281 53.535156 C 119.308594 54.179688 116.199219 54.265625 113.308594 53.949219 C 111.664062 53.777344 109.617188 52.632812 108.726562 51.359375 C 103.03125 43.214844 95.113281 36.5 90.578125 27.609375 C 89.890625 26.265625 88.617188 25.175781 87.554688 23.902344 C 84.222656 24.503906 83.804688 26.996094 82.605469 28.957031 C 79.082031 34.667969 75.445312 40.308594 71.824219 45.949219 C 71.082031 47.121094 70.222656 48.222656 69.40625 49.355469 C 65.914062 54.164062 62.546875 59.0625 58.871094 63.757812 C 57.667969 65.289062 55.792969 66.40625 54.089844 67.550781 C 52.214844 68.808594 50.222656 70.199219 47.804688 68.378906 C 45.386719 66.5625 44.453125 64.214844 45.871094 61.636719 C 48.433594 56.972656 50.394531 51.632812 54.230469 48.039062 C 59.300781 43.285156 62.089844 37.460938 65.742188 32.089844 C 69.71875 26.207031 72.527344 19.652344 75.675781 13.3125 C 76.71875 11.207031 77.207031 8.875 77.953125 6.640625 C 79.597656 1.660156 85.082031 0.183594 89.316406 3.648438 C 89.933594 4.164062 90.503906 4.792969 90.890625 5.464844 C 94.441406 11.605469 97.890625 17.804688 101.511719 23.933594 C 102.789062 26.09375 104.277344 28.199219 105.953125 30.117188 C 107.796875 32.234375 110.316406 33.894531 111.921875 36.128906 C 113.851562 38.820312 116.34375 39.164062 119.507812 39.277344 C 130.285156 39.707031 141.066406 40.324219 151.816406 41.097656 C 154.507812 41.28125 157.15625 42.210938 159.773438 42.972656 C 166.246094 44.875 169.753906 43.84375 173.1875 38.589844 C 179.070312 29.585938 184.867188 20.566406 193.085938 13.066406 C 195.117188 11.207031 196.035156 8.371094 197.679688 6.109375 C 201.058594 1.429688 205.082031 1 208.988281 5.292969 C 210.792969 7.285156 211.867188 9.988281 212.652344 12.539062 C 215.789062 22.601562 218.566406 32.765625 221.6875 42.828125 C 223.019531 47.109375 224.90625 51.246094 226.425781 55.480469 C 226.941406 56.941406 227.441406 58.515625 227.355469 60.019531 C 227.167969 63.382812 224.335938 65.101562 220.757812 64.34375 C 217.421875 63.640625 214.886719 61.996094 213.871094 58.917969 C 211.207031 50.757812 208.675781 42.570312 206.027344 34.410156 C 205.097656 31.535156 203.992188 28.714844 202.976562 25.863281 C 202.40625 25.777344 201.859375 25.707031 201.316406 25.621094 Z M 201.316406 25.621094 " fill-opacity="1" fill-rule="nonzero"/><path fill="#645f8c" d="M 160.519531 223.953125 C 156.753906 224.226562 152.976562 224.511719 149.195312 224.742188 C 148.152344 224.796875 147.050781 224.8125 146.03125 224.582031 C 136.84375 222.421875 127.679688 220.160156 118.492188 218.027344 C 114.195312 217.023438 109.671875 216.683594 105.578125 215.265625 C 97.492188 212.457031 89.546875 209.238281 81.703125 205.886719 C 78.867188 204.6875 76.304688 202.824219 73.886719 200.949219 C 69.191406 197.3125 64.566406 193.59375 60.1875 189.65625 C 58.425781 188.066406 57.195312 185.890625 56.078125 183.816406 C 54.660156 181.167969 55.40625 177.644531 57.308594 176.257812 C 59.199219 174.867188 62.648438 175.296875 65.496094 177.359375 C 66.5 178.074219 67.472656 178.863281 68.273438 179.765625 C 74.960938 187.363281 83.320312 192.847656 93.324219 196.054688 C 102.101562 198.859375 111.019531 201.308594 119.867188 203.96875 C 131.601562 207.519531 143.984375 207.707031 156.039062 209.496094 C 160.820312 210.195312 166.257812 209.09375 170.984375 207.679688 C 182.035156 204.371094 192.898438 200.519531 203.691406 196.570312 C 206.554688 195.523438 208.960938 193.347656 211.480469 191.585938 C 216.03125 188.410156 218.367188 188.511719 222.503906 192.21875 C 226.425781 195.738281 227.328125 200.390625 224.175781 203.699219 C 221.257812 206.777344 217.808594 209.367188 213.054688 209.925781 C 211.421875 210.125 209.707031 210.46875 208.246094 211.140625 C 203.191406 213.460938 198.382812 216.28125 193.199219 218.300781 C 182.835938 222.320312 171.871094 224.253906 160.519531 223.953125 Z M 160.519531 223.953125 " fill-opacity="1" fill-rule="nonzero"/><path fill="#645f8c" d="M 145.472656 172.320312 C 142.570312 173.335938 139.835938 174.296875 137.101562 175.253906 C 133.0625 176.671875 129.199219 176.527344 125.621094 174.125 C 123.214844 172.519531 122.027344 169.269531 122.785156 166.894531 C 123.601562 164.332031 125.878906 164.089844 128.269531 163.71875 C 130.515625 163.375 132.992188 163.058594 134.867188 161.984375 C 139.835938 159.148438 140.019531 154.039062 135.8125 150.417969 C 133.835938 148.714844 131.875 146.839844 130.542969 144.722656 C 128.355469 141.257812 129.042969 138.609375 132.105469 135.789062 C 136.285156 131.953125 145.71875 131.050781 150.527344 134.042969 C 154.820312 136.71875 156.339844 141.457031 153.835938 145.851562 C 150.886719 151.003906 150.640625 156.316406 152.289062 161.699219 C 153.632812 166.078125 156.125 167.066406 160.933594 165.835938 C 166.289062 164.460938 168.507812 165.277344 169.96875 169.199219 C 171.828125 174.179688 170.796875 176.816406 166.074219 178.789062 C 160.277344 181.222656 154.878906 180.351562 150.011719 176.757812 C 148.550781 175.683594 147.40625 174.238281 145.472656 172.320312 Z M 145.472656 172.320312 " fill-opacity="1" fill-rule="nonzero"/><g clip-path="url(#808d48a606)"><path fill="#645f8c" d="M 63.335938 121.160156 C 57.339844 119.984375 51.355469 118.8125 45.355469 117.652344 C 32.945312 115.246094 20.535156 112.828125 8.109375 110.4375 C 3.441406 109.550781 1.394531 106.6875 0.953125 102.605469 C 0.566406 99.070312 2.167969 97.382812 6.003906 97.625 C 8.511719 97.78125 10.988281 98.441406 13.476562 98.871094 C 28.464844 101.433594 43.480469 103.894531 58.441406 106.613281 C 63.191406 107.472656 67.929688 108.605469 70.050781 113.644531 C 72.054688 118.410156 70.765625 120.773438 65.3125 121 C 64.679688 121.03125 64.039062 120.929688 63.40625 120.886719 C 63.378906 120.972656 63.363281 121.074219 63.335938 121.160156 Z M 63.335938 121.160156 " fill-opacity="1" fill-rule="nonzero"/></g><path fill="#645f8c" d="M 247.554688 127.027344 C 245.863281 127.027344 244.03125 127.398438 242.515625 126.925781 C 240.882812 126.414062 238.691406 125.324219 238.320312 124.09375 C 237.960938 122.949219 239.28125 120.714844 240.566406 119.925781 C 242.988281 118.453125 245.808594 117.265625 248.628906 116.679688 C 260.351562 114.289062 272.160156 112.210938 283.914062 109.921875 C 289.695312 108.804688 295.453125 107.53125 301.191406 106.242188 C 304.15625 105.570312 306.558594 106.097656 308.5625 108.316406 C 310.296875 110.25 310.210938 112.328125 309.050781 114.289062 C 308.40625 115.359375 307.1875 116.40625 305.957031 116.878906 C 303.640625 117.765625 301.148438 118.410156 298.671875 118.855469 C 287.0625 120.914062 275.4375 122.917969 263.800781 124.867188 C 258.433594 125.769531 253.023438 126.527344 247.640625 127.355469 C 247.609375 127.257812 247.582031 127.140625 247.554688 127.027344 Z M 247.554688 127.027344 " fill-opacity="1" fill-rule="nonzero"/><path fill="#645f8c" d="M 247.46875 138.824219 C 259.777344 140.382812 272.105469 141.859375 284.386719 143.574219 C 287.261719 143.976562 290.054688 145.09375 292.773438 146.125 C 296.039062 147.355469 298.5 153.726562 297.054688 156.6875 C 295.980469 158.90625 293.117188 160.007812 289.996094 158.863281 C 280.046875 155.183594 269.554688 154.484375 259.046875 153.4375 C 254.554688 152.996094 250.214844 151.0625 245.835938 149.746094 C 245.046875 149.515625 244.277344 149.085938 243.660156 148.585938 C 241.726562 147.011719 239.824219 145.292969 240.796875 142.632812 C 241.84375 139.769531 244.375 139.007812 247.46875 138.824219 Z M 247.46875 138.824219 " fill-opacity="1" fill-rule="nonzero"/><path fill="#645f8c" d="M 64.296875 133.742188 C 65.726562 134.386719 68.359375 135.171875 70.4375 136.632812 C 72.785156 138.28125 74.832031 140.65625 73.941406 143.617188 C 73.085938 146.46875 70.035156 146.738281 67.285156 147.242188 C 55.277344 149.386719 43.296875 151.664062 31.269531 153.753906 C 29.265625 154.097656 27.035156 154.027344 25.058594 153.566406 C 21.953125 152.835938 19.804688 149.847656 19.777344 147.011719 C 19.746094 144.25 21.207031 142.574219 25.285156 141.671875 C 36.996094 139.09375 48.75 136.703125 60.488281 134.257812 C 61.316406 134.085938 62.160156 134.027344 64.296875 133.742188 Z M 64.296875 133.742188 " fill-opacity="1" fill-rule="nonzero"/><path fill="#645f8c" d="M 199.871094 109.636719 C 199.757812 110.792969 199.742188 111.96875 199.527344 113.097656 C 198.382812 119.355469 193.070312 122.890625 186.53125 121.789062 C 178.183594 120.386719 174.191406 115.789062 174.835938 109.207031 C 175.292969 104.46875 178.5 101.519531 181.75 98.511719 C 182.679688 97.652344 184.355469 97.179688 185.742188 97.039062 C 192.597656 96.335938 200.300781 103.292969 199.871094 109.636719 Z M 199.871094 109.636719 " fill-opacity="1" fill-rule="nonzero"/><path fill="#645f8c" d="M 129.140625 102.191406 C 128.882812 109.046875 123.015625 115.105469 116.960938 114.761719 C 109.53125 114.332031 104.03125 109.421875 104.304688 103.4375 C 104.621094 96.765625 109.757812 92.5 117.144531 92.800781 C 124.546875 93.117188 129.339844 96.867188 129.140625 102.191406 Z M 129.140625 102.191406 " fill-opacity="1" fill-rule="nonzero"/></g></g></g></svg>