<svg width="61" height="61" viewBox="0 0 61 61" fill="none" xmlns="http://www.w3.org/2000/svg">
<path d="M27.6721 8.30054L28.9724 10.7428C29.2648 11.1935 29.5815 11.5924 29.9545 11.9639C31.0482 13.0439 32.0676 14.1966 33.0058 15.4141C35.209 18.3071 36.6951 21.5198 37.7563 24.9944C38.3928 27.1169 38.7384 29.2942 38.7643 31.4959C38.8709 38.0781 36.6144 43.73 32.0648 48.4272C31.3248 49.1721 30.5253 49.8555 29.6743 50.4706C29.2237 50.4706 29.0105 50.1249 28.8247 49.8067C28.4865 49.2166 28.2613 48.5686 28.1609 47.8958C28.001 47.0995 27.8959 46.3032 27.9477 45.481V45.1095C27.9112 45.0303 27.5138 8.48782 27.6721 8.30054Z" fill="#599636"/>
<path d="M27.672 8.21986C27.6187 8.11328 27.5654 8.19398 27.5122 8.24575C27.538 8.77866 27.3523 9.25371 27.0615 9.70745C26.7417 10.1581 26.3184 10.5038 25.8936 10.8753C23.5336 12.9186 21.676 15.3868 20.1884 18.1472C18.2091 21.8624 17.1889 25.844 16.8996 30.0357C16.7671 31.5477 17.3777 36.8829 17.8543 38.4222C19.1546 42.5089 21.4903 45.9332 24.5157 48.9053C25.2587 49.621 26.0535 50.2848 26.8757 50.9228C27.1148 50.9228 27.1406 50.7096 27.1955 50.5513C27.3003 50.2124 27.3802 49.8664 27.4345 49.5159L27.9674 45.5358L27.672 8.21986Z" fill="#6CAC48"/>
<path d="M28.9724 52.0876C29.0256 51.4785 29.318 50.973 29.6362 50.469C29.3165 50.3366 29.0789 50.0732 28.8932 49.7793C28.733 49.5011 28.6004 49.2078 28.4973 48.9038C28.1258 47.7893 28.0466 46.6199 27.94 45.481V44.7913C27.8076 44.8978 27.7802 45.7992 27.7802 45.9332C27.7027 47.1369 27.5429 48.334 27.3021 49.5159C27.2229 49.994 27.1696 50.4706 26.8757 50.8954C26.8757 50.9487 26.8757 51.002 26.9016 51.0811C27.3797 52.488 27.5107 53.9208 27.5914 55.381V55.9139C27.5914 56.5503 27.5655 56.4163 28.0938 56.6295C28.307 56.7087 28.5445 56.7361 28.7577 56.8944C28.9175 56.8944 28.9434 56.762 28.9434 56.6554L28.8643 55.7799V53.3376C28.8384 52.9113 28.9175 52.488 28.9708 52.0891L28.9724 52.0876Z" fill="#C2BFBF"/>
</svg>
