<svg width="55" height="60" viewBox="0 0 55 60" fill="none" xmlns="http://www.w3.org/2000/svg">
<path d="M24.8203 0.640115C26.308 -0.211448 28.2458 -0.215294 29.7323 0.640115C37.2104 4.86566 44.6909 9.08459 52.1678 13.3127C53.5741 14.1049 54.5148 15.6699 54.5005 17.2904V42.7129C54.5109 44.4004 53.4773 46.0029 51.9936 46.7771C44.54 50.9794 37.0903 55.1867 29.638 59.389C28.1195 60.2572 26.1429 60.1903 24.6718 59.2509C22.4372 57.9555 20.1988 56.6666 17.964 55.3724C17.5074 55.1002 16.9926 54.8835 16.6701 54.4407C16.9552 54.0565 17.4648 54.0086 17.879 53.8409C18.8117 53.5443 19.6684 53.0682 20.5253 52.6062C20.742 52.4579 21.0066 52.5147 21.2143 52.6474C23.1251 53.743 25.0191 54.8705 26.9363 55.9556C27.3453 56.1917 27.7594 55.8782 28.109 55.6834C35.4233 51.5495 42.7465 47.4312 50.0595 43.2961C50.3305 43.1657 50.4803 42.8781 50.4583 42.5813C50.4634 34.1949 50.4595 25.8071 50.4608 17.4207C50.4918 17.0839 50.2969 16.7743 49.9924 16.6365C42.5647 12.4534 35.1408 8.26401 27.7144 4.07992C27.5857 3.99146 27.4333 3.944 27.2771 3.94377C27.121 3.94354 26.9684 3.99056 26.8395 4.07864C19.4131 8.26401 11.9905 12.4573 4.56402 16.6401C4.26058 16.7781 4.05693 17.0827 4.09304 17.4207C4.09432 25.8071 4.09304 34.1949 4.09304 42.5825C4.08016 42.7274 4.11197 42.8727 4.18418 42.9988C4.25639 43.125 4.36554 43.2261 4.49692 43.2884C6.4787 44.4122 8.46305 45.5281 10.4461 46.648C11.5633 47.2494 12.935 47.6067 14.1658 47.1459C15.252 46.7564 16.0134 45.6479 15.9927 44.4946C16.003 36.1572 15.9876 27.8185 16.0004 19.4824C15.9733 19.1123 16.3244 18.8065 16.6842 18.8413C17.6364 18.8349 18.5899 18.8285 19.5421 18.8439C19.9396 18.8349 20.2131 19.2335 20.164 19.6064C20.1601 27.9966 20.1742 36.387 20.1576 44.7772C20.1601 47.0132 19.2415 49.4463 17.1731 50.5404C14.6251 51.8604 11.4757 51.5805 8.95839 50.3148C6.77915 49.2271 4.6995 47.9434 2.55895 46.7782C1.07144 46.0082 0.0429357 44.3993 0.0534066 42.7131V17.2904C0.0378071 15.6364 1.01588 14.0429 2.46599 13.2623C9.91829 9.05659 17.3693 4.84771 24.8203 0.640115Z" fill="#8CC84B"/>
<path d="M31.3216 18.2503C34.5719 18.0411 38.0514 18.1264 40.9762 19.7276C43.2407 20.9546 44.4962 23.5298 44.5361 26.0456C44.4729 26.385 44.1182 26.5722 43.7942 26.5489C42.8512 26.5476 41.9079 26.5617 40.9649 26.5425C40.5649 26.5578 40.3324 26.189 40.2822 25.8353C40.0112 24.6316 39.3547 23.4394 38.2218 22.8588C36.4825 21.988 34.4659 22.0318 32.5694 22.05C31.1849 22.1235 29.6961 22.2434 28.5231 23.0576C27.6226 23.6743 27.3491 24.9192 27.6705 25.9219C27.9735 26.6418 28.8046 26.8741 29.4845 27.0882C33.4015 28.1127 37.5523 28.0107 41.3944 29.3589C42.9852 29.9085 44.5413 30.977 45.0858 32.6425C45.798 34.8747 45.4858 37.5429 43.8976 39.3349C42.6097 40.8096 40.7339 41.6122 38.863 42.0482C36.3742 42.6031 33.7913 42.6172 31.2637 42.3708C28.887 42.0999 26.4138 41.4755 24.579 39.8561C23.0101 38.4938 22.2438 36.3712 22.3199 34.3226C22.338 33.9766 22.6825 33.7353 23.0139 33.7638C23.9636 33.7561 24.9132 33.7535 25.8629 33.765C26.2422 33.7379 26.5234 34.0657 26.5428 34.4232C26.7181 35.5701 27.1491 36.7738 28.1492 37.4538C30.0792 38.699 32.501 38.6137 34.711 38.6485C36.5419 38.5673 38.5972 38.5428 40.0913 37.3326C40.8797 36.6424 41.1132 35.4876 40.9002 34.4942C40.6694 33.6554 39.792 33.2646 39.0385 33.009C35.1717 31.7858 30.9746 32.2297 27.1452 30.8464C25.5906 30.297 24.0873 29.2583 23.49 27.6611C22.6566 25.4007 23.0385 22.6048 24.7931 20.8732C26.5039 19.1508 28.9736 18.4875 31.3216 18.2501V18.2503Z" fill="#8CC84B"/>
</svg>