<svg width="58" height="60" viewBox="0 0 58 60" fill="none" xmlns="http://www.w3.org/2000/svg">
<path d="M28.9008 35.2897C31.8223 35.2897 34.1906 32.9214 34.1906 29.9999C34.1906 27.0785 31.8223 24.7102 28.9008 24.7102C25.9794 24.7102 23.6111 27.0785 23.6111 29.9999C23.6111 32.9214 25.9794 35.2897 28.9008 35.2897Z" fill="#61DAFB"/>
<path d="M27.8018 41C42.7134 41 54.8018 36.0751 54.8018 30C54.8018 23.9249 42.7134 19 27.8018 19C12.8901 19 0.801758 23.9249 0.801758 30C0.801758 36.0751 12.8901 41 27.8018 41Z" stroke="#61DAFB" stroke-width="2"/>
<path d="M19.5152 35.4188C27.3532 48.9946 37.9093 57.5739 43.0928 54.5812C48.2763 51.5885 46.1244 38.1571 38.2863 24.5812C30.4483 11.0054 19.8923 2.42606 14.7088 5.41876C9.52529 8.41146 11.6772 21.8429 19.5152 35.4188Z" stroke="#61DAFB" stroke-width="2"/>
<path d="M19.5152 24.5811C11.6772 38.157 9.5253 51.5884 14.7088 54.5811C19.8923 57.5738 30.4483 48.9945 38.2863 35.4186C46.1244 21.8428 48.2763 8.41134 43.0928 5.41864C37.9093 2.42595 27.3532 11.0053 19.5152 24.5811Z" stroke="#61DAFB" stroke-width="2"/>
</svg>