<svg id="Layer_1" data-name="Layer 1" xmlns="http://www.w3.org/2000/svg" viewBox="0 0 280 300"><defs><style>.cls-1{fill:#cb2026;}</style></defs><title>RUBY ON RAILS LOGO</title><path class="cls-1" d="M128.51,169.14s7.11-.61,7.11-9.78-8.61-10-8.61-10h-15.5v28.94h7.79v-7l6.74,7h11.52Zm-3-5.93H119.3V156.6h6.25s1.75.65,1.75,3.28A3.35,3.35,0,0,1,125.51,163.21Zm29.35-13.68h-7.92c-5.64,0-7.55,5.12-7.55,7.55v21.19h7.92V173.2h7.42v5.07h7.67V157.08C162.4,150.91,156.8,149.53,154.86,149.53ZM154.73,165h-7.46v-7s0-1.59,2.47-1.59h2.72c2.19,0,2.23,1.59,2.23,1.59v7ZM166,149.53h8.24v28.74H166Zm19.8,21.31V149.53h-8.19v28.74H196.9v-7.43Zm13.8.08v7.35H212.9a7.6,7.6,0,0,0,7.55-7.55v-2.84a7.5,7.5,0,0,0-7.55-7.55h-6.62v-3.41h13.11v-7.39H206.81a7.72,7.72,0,0,0-7.59,7.67v2.56a7.59,7.59,0,0,0,7.59,7.55c9.13,0-2.19,0,6.25,0v3.57Z"/><path class="cls-1" d="M62.4,178.23H94.46s-6.13-28,14.17-39.29c4.42-2.15,18.5-10.19,41.56,6.86.73-.61,1.42-1.1,1.42-1.1S130.5,123.64,107,126c-11.81,1.06-26.34,11.81-34.86,26S62.4,178.23,62.4,178.23Zm66.8-50,.17-2.71a19.81,19.81,0,0,0-3.94-1.43l-.16,2.68C126.61,127.25,127.9,127.74,129.2,128.26Zm-3.85,8.61-.16,2.56a23,23,0,0,1,4,.48l.17-2.51A27.74,27.74,0,0,0,125.35,136.87Zm-15-12.66h.41l-.82-2.48A32.86,32.86,0,0,0,106,122l.77,2.4A34.74,34.74,0,0,1,110.33,124.21Zm2,14.93.93,2.8a26.57,26.57,0,0,1,3.53-1.42l-.89-2.68A31,31,0,0,0,112.28,139.14ZM93.85,128.47,92,125.67c-1,.52-2.07,1.09-3.16,1.74l1.87,2.84C91.78,129.6,92.8,129,93.85,128.47Zm8.32,18.26,2,2.92a23.54,23.54,0,0,1,2.39-2.88L104.69,144A22.76,22.76,0,0,0,102.17,146.73ZM96.29,159.8l3.28,2.6a32.93,32.93,0,0,1,.86-4.75l-2.93-2.31A39,39,0,0,0,96.29,159.8ZM78.51,140.52,75.63,138c-1.06,1-2.07,2-3,3l3.13,2.68A39.66,39.66,0,0,1,78.51,140.52ZM66.25,158.67,61.58,157c-.77,1.75-1.62,3.78-2,4.87l4.67,1.71C64.75,162.16,65.6,160.17,66.25,158.67Zm29.43,11.44a42,42,0,0,0,.48,5.12L101,177a51.07,51.07,0,0,1-1-5.28Z"/></svg>