<svg width="61" height="60" viewBox="0 0 61 60" fill="none" xmlns="http://www.w3.org/2000/svg">
<path d="M0.203674 0H60.2037V60H0.203674V0Z" fill="#017ACB"/>
<path d="M29.0131 22.2187H31.8912V27.1874H24.1099V49.2937L23.9037 49.3499C23.6224 49.4249 19.9193 49.4249 19.1224 49.3405L18.4849 49.2843V27.1874H10.7037V22.2187L13.1693 22.1905C14.5193 22.1718 17.9881 22.1718 20.8756 22.1905C23.7631 22.2093 27.4193 22.2187 29.0131 22.2187ZM50.9787 46.9499C49.835 48.1593 48.6069 48.8343 46.5631 49.3874C45.6725 49.6312 45.5225 49.6405 43.5162 49.6312C41.51 49.6218 41.3506 49.6218 40.3756 49.3686C37.8537 48.7218 35.8193 47.4562 34.4318 45.6655C34.0381 45.1593 33.3912 44.1093 33.3912 43.978C33.3912 43.9405 33.485 43.8562 33.6068 43.7999C33.7287 43.7437 33.9818 43.5843 34.1881 43.4624C34.3943 43.3405 34.7693 43.1155 35.0225 42.9843C35.2756 42.853 36.0068 42.4218 36.6443 42.0374C37.2818 41.653 37.8631 41.3437 37.9287 41.3437C37.9943 41.3437 38.1162 41.4749 38.21 41.6343C38.7725 42.5812 40.085 43.7905 41.0131 44.203C41.585 44.4468 42.8506 44.7187 43.46 44.7187C44.0225 44.7187 45.0537 44.4749 45.6069 44.2218C46.1975 43.9499 46.4975 43.678 46.8537 43.1343C47.0975 42.7499 47.1256 42.6468 47.1162 41.9155C47.1162 41.2405 47.0787 41.053 46.8912 40.7437C46.3662 39.8812 45.6537 39.4312 42.7662 38.1562C39.785 36.8343 38.4443 36.0468 37.3568 34.9874C36.5506 34.1999 36.3912 33.9843 35.885 32.9999C35.2287 31.7343 35.1443 31.3218 35.135 29.4374C35.1256 28.1155 35.1537 27.6843 35.2943 27.2343C35.4912 26.5593 36.1287 25.2562 36.4193 24.928C37.0193 24.2249 37.235 24.0093 37.6568 23.6624C38.9318 22.6124 40.9193 21.9187 42.8225 21.853C43.0381 21.853 43.7506 21.8905 44.4162 21.9374C46.3287 22.0968 47.6319 22.5655 48.8881 23.5687C49.835 24.3187 51.2694 26.0812 51.1287 26.3155C51.035 26.4562 47.2944 28.9499 47.0506 29.0249C46.9006 29.0718 46.7975 29.0155 46.5912 28.7718C45.3162 27.2437 44.8006 26.9155 43.5631 26.8405C42.6819 26.7843 42.2131 26.8874 41.6225 27.2812C41.0037 27.6937 40.7037 28.3218 40.7037 29.1937C40.7131 30.4687 41.2006 31.0687 43.0006 31.9593C44.1631 32.5312 45.1569 32.9999 45.2319 32.9999C45.3444 32.9999 47.7537 34.1999 48.3819 34.5749C51.3069 36.2905 52.4975 38.053 52.8069 41.0905C53.0319 43.378 52.385 45.4687 50.9787 46.9499Z" fill="white"/>
</svg>