<svg width="61" height="60" viewBox="0 0 61 60" fill="none" xmlns="http://www.w3.org/2000/svg">
<g clip-path="url(#clip0_589_163)">
<rect x="0.931396" width="60" height="60" rx="30" fill="white"/>
<path d="M28.0017 0.129028C22.1189 0.77356 16.5876 3.047 12.1228 6.64465C10.6111 7.8634 8.13843 10.4064 7.04859 11.8595C3.94312 16.0079 1.96265 20.7423 1.21265 25.84C0.954837 27.5626 0.872805 30.8556 1.03687 32.5782C1.52906 37.6525 3.14624 42.34 5.78296 46.3361C10.6345 53.7072 18.0525 58.4298 26.7712 59.7189C28.4939 59.9767 31.7869 60.0587 33.5095 59.8947C38.5837 59.4025 43.2712 57.7853 47.2673 55.1486C54.6384 50.297 59.3611 42.879 60.6501 34.1603C60.908 32.4376 60.99 29.1447 60.8259 27.422C60.2283 21.2814 58.0369 15.8439 54.2869 11.1915C53.0681 9.67981 50.5251 7.20715 49.072 6.11731C44.9236 3.01184 40.2244 1.05481 35.0916 0.281372C33.6736 0.0704346 29.3845 -0.0233154 28.0017 0.129028ZM38.6541 27.6447C42.7205 34.7579 46.0486 40.5939 46.0486 40.6173C46.0486 40.6407 39.3806 40.6642 31.2244 40.6642C23.0681 40.6642 16.4001 40.6407 16.4001 40.6056C16.4001 40.5118 31.2009 14.6368 31.2361 14.6837C31.2478 14.6954 34.5994 20.5314 38.6541 27.6447Z" fill="black"/>
<g clip-path="url(#clip1_589_163)">
<path d="M5.70803 -525.846C3.26864 -508.748 1.68134 -491.54 0.952026 -474.286H778.751C776.035 -479.592 772.386 -484.376 768.706 -489.058C635.736 -660.849 564.208 -645.954 461.887 -650.318C427.773 -651.721 404.638 -652.285 268.85 -652.285C196.173 -652.285 117.162 -652.1 40.222 -651.895C30.262 -625.011 20.656 -598.953 15.979 -577.755H414.55V-525.846H5.70803ZM784.882 -422.325H1.35103C2.17103 -408.474 3.46303 -394.808 5.32903 -381.326H728.719C760.967 -381.326 779.019 -399.623 784.882 -422.325ZM45.969 -239.715C45.969 -239.715 165.893 54.7495 512.412 59.9795C719.524 59.9795 897.483 -63.0265 978.319 -239.715H45.969Z" fill="white"/>
</g>
</g>
<defs>
<clipPath id="clip0_589_163">
<rect x="0.931396" width="60" height="60" rx="30" fill="white"/>
</clipPath>
<clipPath id="clip1_589_163">
<rect width="1024" height="1024" fill="white" transform="translate(0.952026 -964.021)"/>
</clipPath>
</defs>
</svg>