<svg width="60" height="60" viewBox="0 0 60 60" fill="none" xmlns="http://www.w3.org/2000/svg">
<path d="M58.8854 8.8806L31.2154 59.2168C30.6441 60.2561 29.1763 60.2622 28.5965 59.2281L0.377893 8.88528C-0.253942 7.75842 0.69335 6.39326 1.94874 6.62172L29.6485 11.6584C29.8252 11.6906 30.0061 11.6902 30.1827 11.6575L57.3031 6.62874C58.5543 6.39677 59.506 7.75139 58.8854 8.8806Z" fill="url(#paint0_linear_609_511)"/>
<path d="M42.8432 0.0147724L22.3667 4.09668C22.2031 4.12929 22.0548 4.21629 21.9451 4.344C21.8354 4.47171 21.7705 4.63289 21.7607 4.8022L20.5011 26.4444C20.4942 26.5631 20.5146 26.6818 20.5606 26.7911C20.6067 26.9004 20.6771 26.9973 20.7664 27.074C20.8557 27.1508 20.9613 27.2053 21.0749 27.2333C21.1885 27.2612 21.3069 27.2619 21.4208 27.2351L27.1218 25.8967C27.6552 25.7714 28.1372 26.2494 28.0275 26.7951L26.3338 35.233C26.2199 35.8009 26.7438 36.2864 27.2889 36.1178L30.8102 35.0296C31.356 34.861 31.8806 35.3479 31.7651 35.9163L29.0735 49.1702C28.9051 49.9993 29.989 50.4513 30.4409 49.7407L30.743 49.2659L47.4285 15.3897C47.708 14.8225 47.226 14.1758 46.614 14.2961L40.7454 15.4482C40.1941 15.5564 39.725 15.0339 39.8805 14.4852L43.7106 0.977549C43.8664 0.427458 43.3954 -0.0952457 42.8434 0.0147724H42.8432Z" fill="url(#paint1_linear_609_511)"/>
<defs>
<linearGradient id="paint0_linear_609_511" x1="-0.311087" y1="10.6829" x2="30.1992" y2="51.4126" gradientUnits="userSpaceOnUse">
<stop stop-color="#41D1FF"/>
<stop offset="1" stop-color="#BD34FE"/>
</linearGradient>
<linearGradient id="paint1_linear_609_511" x1="32.2157" y1="1.12309" x2="38.5648" y2="43.9345" gradientUnits="userSpaceOnUse">
<stop stop-color="#FFEA83"/>
<stop offset="0.083" stop-color="#FFDD35"/>
<stop offset="1" stop-color="#FFA800"/>
</linearGradient>
</defs>
</svg>