<svg width="61" height="60" viewBox="0 0 61 60" fill="none" xmlns="http://www.w3.org/2000/svg">
<path d="M0.577022 20.9229C0.577022 20.9229 -0.900154 19.8581 0.872457 18.4363L5.00239 14.7434C5.00239 14.7434 6.18413 13.5001 7.43358 14.5833L45.5447 43.4375V57.2737C45.5447 57.2737 45.5262 59.4464 42.7381 59.2064L0.577022 20.9229Z" fill="#2489CA"/>
<path d="M10.4003 29.8413L0.577042 38.7721C0.577042 38.7721 -0.432362 39.523 0.577042 40.8647L5.13783 45.0131C5.13783 45.0131 6.22109 46.1764 7.82136 44.8531L18.2355 36.9564L10.4003 29.8413Z" fill="#1070B3"/>
<path d="M27.6463 29.9152L45.6617 16.1589L45.5448 2.39654C45.5448 2.39654 44.7754 -0.607054 42.2088 0.956294L18.2355 22.7755L27.6463 29.9152Z" fill="#0877B9"/>
<path d="M42.7382 59.2249C43.7845 60.2959 45.0524 59.945 45.0524 59.945L59.0917 53.0269C60.889 51.8021 60.6366 50.2818 60.6366 50.2818V8.97007C60.6366 7.15437 58.7778 6.52657 58.7778 6.52657L46.6096 0.66094C43.9507 -0.982421 42.2089 0.956376 42.2089 0.956376C42.2089 0.956376 44.4492 -0.656211 45.5448 2.39662V57.0215C45.5448 57.3969 45.4648 57.7662 45.3048 58.0986C44.9847 58.7448 44.2892 59.348 42.6212 59.0956L42.7382 59.2249Z" fill="#3C99D4"/>
</svg>